<svg xmlns="http://www.w3.org/2000/svg" viewBox="0 0 64 64" role="img" aria-label="โลโก้วิสาหกิจชุมชน">
  <circle cx="32" cy="32" r="31" fill="#2f6b3f"/>
  <circle cx="32" cy="32" r="27" fill="#faf6ec"/>
  <g stroke-linecap="round">
    <path d="M26 52V14" stroke="#5a9a4f" stroke-width="6"/>
    <path d="M38 52V20" stroke="#a9814a" stroke-width="6"/>
    <path d="M22.5 26h7M22.5 38h7M34.5 30h7M34.5 42h7" stroke="#1c3a26" stroke-width="2"/>
  </g>
  <path d="M26 22c6-7 13-8 18-6-4 5-10 8-18 6z" fill="#5a9a4f"/>
  <path d="M38 26c5-5 11-5 14-3-3 4-8 6-14 3z" fill="#3d7f4a"/>
  <path d="M26 30c-5-5-11-6-15-4 3 4 9 7 15 4z" fill="#3d7f4a"/>
</svg>
